<!-- Generator: Adobe Illustrator 17.1.0, SVG Export Plug-In  -->
<svg version="1.1"
	 xmlns="http://www.w3.org/2000/svg" xmlns:xlink="http://www.w3.org/1999/xlink" xmlns:a="http://ns.adobe.com/AdobeSVGViewerExtensions/3.0/"
	 x="0px" y="0px" width="429.7px" height="620.1px" viewBox="0 0 429.7 620.1" enable-background="new 0 0 429.7 620.1"
	 xml:space="preserve">
<defs>
</defs>
<g>
	<g>
		<path fill="#FFFFFF" d="M103.7,30.4V6.6H92v23.8h-7.6V0.5h26.8v29.9H103.7z"/>
		<path fill="#FFFFFF" d="M145.2,15.5c0,9.5-5.7,15.4-14.7,15.4c-9.1,0-14.8-5.9-14.8-15.4c0-9.5,5.7-15.5,14.8-15.5
			C139.5,0,145.2,5.9,145.2,15.5z M123.5,15.5c0,5.7,2.8,9.3,7,9.3c4.2,0,7-3.6,7-9.3c0-5.7-2.8-9.3-7-9.3
			C126.2,6.2,123.5,9.8,123.5,15.5z"/>
		<path fill="#FFFFFF" d="M149.5,30.4V0.5h14c5.9,0,9.4,2.8,9.4,7.5c0,3.4-2.5,6-5.9,6.5v0.2c4,0.2,7.2,3.2,7.2,7.2
			c0,5.2-4.1,8.6-10.5,8.6H149.5z M157.1,12.7h4c2.8,0,4.4-1.3,4.4-3.5c0-2.1-1.5-3.3-4-3.3h-4.4V12.7z M161.7,25
			c3.1,0,4.9-1.4,4.9-3.9c0-2.4-1.8-3.8-4.9-3.8h-4.6V25H161.7z"/>
		<path fill="#FFFFFF" d="M198.7,30.4h-20.5V0.5h20.5v6.1h-12.9v5.9H198v5.6h-12.1v6.1h12.9V30.4z"/>
		<path fill="#FFFFFF" d="M216.9,0.5c6.4,0,10.7,4.2,10.7,10.6c0,6.4-4.6,10.5-11.2,10.5h-5v8.8h-7.6V0.5H216.9z M211.4,15.9h3.4
			c3.2,0,5.1-1.7,5.1-4.8c0-3.1-1.9-4.8-5.1-4.8h-3.5V15.9z"/>
		<path fill="#FFFFFF" d="M251.3,30.4v-12h-11.9v12h-7.6V0.5h7.6v11.7h11.9V0.5h7.6v29.9H251.3z"/>
		<path fill="#FFFFFF" d="M284.5,12.1h-0.2l-12.2,18.3h-7.3V0.5h7.6v18.3h0.2l12.2-18.3h7.3v29.9h-7.6V12.1z"/>
		<path fill="#FFFFFF" d="M304.3,30.4V6.6H296V0.5h24.2v6.1h-8.3v23.8H304.3z"/>
		<path fill="#FFFFFF" d="M344.8,30.4h-20.5V0.5h20.5v6.1h-12.9v5.9H344v5.6h-12.1v6.1h12.9V30.4z"/>
		<path fill="#FFFFFF" d="M0,81.3V51.4h14c5.9,0,9.4,2.8,9.4,7.5c0,3.4-2.5,6-5.9,6.5v0.2c4,0.2,7.2,3.2,7.2,7.2
			c0,5.2-4.1,8.6-10.5,8.6H0z M7.6,63.6h4c2.8,0,4.4-1.3,4.4-3.5c0-2.1-1.5-3.3-4-3.3H7.6V63.6z M12.2,75.9c3.1,0,4.9-1.4,4.9-3.9
			c0-2.4-1.8-3.8-4.9-3.8H7.6v7.7H12.2z"/>
		<path fill="#FFFFFF" d="M46.1,74.7h-9.8l-1.9,6.6h-7.7l10-29.9H46l10,29.9H48L46.1,74.7z M37.8,69.2h6.8l-3.3-11.5h-0.2L37.8,69.2
			z"/>
		<path fill="#FFFFFF" d="M59.6,51.4h7.6v23.8h7.3V51.4h7.6v23.8h7.3V51.4h7.6v29.9H59.6V51.4z"/>
		<path fill="#FFFFFF" d="M122.7,81.3h-20.5V51.4h20.5v6.1h-12.9v5.9h12.1v5.6h-12.1v6.1h12.9V81.3z"/>
		<path fill="#FFFFFF" d="M138.6,81.3v-6c0.1,0,0.6,0.2,1.9,0.2c1.6,0,2.9-0.3,3.9-1.7l-9.8-22.4h8l5.8,15.2h0.2l5.4-15.2h8
			l-9.2,21.3c-2.5,5.8-5.3,8.9-11.1,8.9C140.1,81.6,138.7,81.3,138.6,81.3z"/>
		<path fill="#FFFFFF" d="M162.6,66.3c0-9.8,5.6-15.7,14.5-15.7c7.3,0,12.9,4.7,13.5,11.4h-7.4c-0.6-3.1-3-5.1-6.1-5.1
			c-4.1,0-6.8,3.5-6.8,9.3c0,5.9,2.6,9.4,6.8,9.4c3.1,0,5.4-1.9,6.1-5h7.4C190,77.5,184.6,82,177.2,82
			C168.2,82,162.6,76.1,162.6,66.3z"/>
		<path fill="#FFFFFF" d="M200.9,81.3V57.5h-8.3v-6.1h24.2v6.1h-8.3v23.8H200.9z"/>
		<path fill="#FFFFFF" d="M234,51.4c6.4,0,10.7,4.2,10.7,10.6c0,6.4-4.6,10.5-11.2,10.5h-5v8.8h-7.6V51.4H234z M228.5,66.8h3.4
			c3.2,0,5.1-1.7,5.1-4.8c0-3.1-1.9-4.8-5.1-4.8h-3.5V66.8z"/>
		<path fill="#FFFFFF" d="M277.6,66.3c0,9.5-5.7,15.4-14.7,15.4c-9.1,0-14.8-5.9-14.8-15.4c0-9.5,5.7-15.5,14.8-15.5
			C271.9,50.9,277.6,56.8,277.6,66.3z M255.8,66.3c0,5.7,2.8,9.3,7,9.3c4.2,0,7-3.6,7-9.3c0-5.7-2.8-9.3-7-9.3
			C258.6,57,255.8,60.7,255.8,66.3z"/>
		<path fill="#FFFFFF" d="M301.8,63h-0.2l-12.2,18.3h-7.3V51.4h7.6v18.3h0.2l12.2-18.3h7.3v29.9h-7.6V63z M292.3,43.3
			c0.1,2,1.4,3.1,3.4,3.1c1.9,0,3.3-1.2,3.4-3.1h4.2c0,4-3.1,6.5-7.6,6.5s-7.6-2.5-7.6-6.5H292.3z"/>
		<path fill="#FFFFFF" d="M313.9,66.3c0-9.8,5.6-15.7,14.5-15.7c7.3,0,12.9,4.7,13.5,11.4h-7.4c-0.6-3.1-3-5.1-6.1-5.1
			c-4.1,0-6.8,3.5-6.8,9.3c0,5.9,2.6,9.4,6.8,9.4c3.1,0,5.4-1.9,6.1-5h7.4c-0.7,6.8-6.1,11.3-13.5,11.3
			C319.5,82,313.9,76.1,313.9,66.3z"/>
		<path fill="#FFFFFF" d="M352.2,81.3V57.5h-8.3v-6.1h24.2v6.1h-8.3v23.8H352.2z"/>
		<path fill="#FFFFFF" d="M372.2,81.3V51.4h14c5.9,0,9.4,2.8,9.4,7.5c0,3.4-2.5,6-5.9,6.5v0.2c4,0.2,7.2,3.2,7.2,7.2
			c0,5.2-4.1,8.6-10.5,8.6H372.2z M379.8,63.6h4c2.8,0,4.4-1.3,4.4-3.5c0-2.1-1.5-3.3-4-3.3h-4.4V63.6z M384.4,75.9
			c3.1,0,4.9-1.4,4.9-3.9c0-2.4-1.8-3.8-4.9-3.8h-4.6v7.7H384.4z"/>
		<path fill="#FFFFFF" d="M429.7,66.3c0,9.5-5.7,15.4-14.7,15.4c-9.1,0-14.8-5.9-14.8-15.4c0-9.5,5.7-15.5,14.8-15.5
			C424,50.9,429.7,56.8,429.7,66.3z M407.9,66.3c0,5.7,2.8,9.3,7,9.3c4.2,0,7-3.6,7-9.3c0-5.7-2.8-9.3-7-9.3
			C410.7,57,407.9,60.7,407.9,66.3z"/>
	</g>
	<g>
		<path fill="#FFFFFF" d="M35.9,540.6c1.6-0.3,4.2-0.6,6.7-0.6c3.7,0,6.1,0.6,7.8,2.1c1.5,1.1,2.4,2.8,2.4,5c0,2.8-1.8,5.2-4.8,6.3
			v0.1c2.7,0.7,5.9,2.9,5.9,7.2c0,2.5-1,4.3-2.4,5.7c-2,1.8-5.2,2.7-9.9,2.7c-2.5,0-4.5-0.2-5.7-0.3V540.6z M39.6,552.3h3.3
			c3.9,0,6.2-2,6.2-4.8c0-3.3-2.5-4.7-6.3-4.7c-1.7,0-2.7,0.1-3.3,0.3V552.3z M39.6,566c0.7,0.1,1.8,0.2,3.1,0.2
			c3.8,0,7.3-1.4,7.3-5.6c0-3.9-3.4-5.5-7.4-5.5h-3.1V566z"/>
		<path fill="#FFFFFF" d="M83,540.2v3.1H71.6v25.5h-3.7v-28.6H83z"/>
		<path fill="#FFFFFF" d="M109.2,554.2c0,9.8-6,15.1-13.3,15.1c-7.5,0-12.8-5.9-12.8-14.5c0-9.1,5.6-15,13.3-15
			C104.1,539.7,109.2,545.7,109.2,554.2z M87,554.6c0,6.1,3.3,11.6,9.1,11.6c5.9,0,9.2-5.4,9.2-11.9c0-5.7-3-11.6-9.1-11.6
			C90,542.7,87,548.4,87,554.6z"/>
		<path fill="#FFFFFF" d="M114,540.5c1.8-0.3,4.1-0.6,7.1-0.6c3.6,0,6.3,0.8,8,2.4c1.6,1.4,2.5,3.4,2.5,6c0,2.6-0.8,4.6-2.2,6.1
			c-2,2.1-5.1,3.1-8.7,3.1c-1.1,0-2.1,0-3-0.3v11.4H114V540.5z M117.6,554.3c0.8,0.2,1.8,0.3,3.1,0.3c4.5,0,7.2-2.2,7.2-6.1
			c0-3.8-2.7-5.6-6.7-5.6c-1.6,0-2.8,0.1-3.5,0.3V554.3z"/>
		<path fill="#FFFFFF" d="M140,540.2v12c0,4.5-0.1,8.3-0.3,12.1l0.1,0c1.4-3,3.2-6.1,5.3-9.5l9.2-14.7h3.7v28.6h-3.5v-12.2
			c0-4.6,0-8,0.3-11.6l-0.1,0c-1.4,3.1-3.4,6.4-5.3,9.6l-8.9,14.2h-3.9v-28.6H140z"/>
		<path fill="#FFFFFF" d="M163.3,541.9c2-1.3,4.5-2.2,7.5-2.2c5,0,8.4,2.6,8.4,7c0,3.5-2.5,6.2-5.9,7v0.1c4,0.4,7,3.1,7,7.2
			c0,5.9-5.1,8.3-10.3,8.3c-2.6,0-5.3-0.6-7.5-1.9l1-2.9c1.5,0.9,4.1,1.7,6.4,1.7c4.2,0,6.6-2.3,6.6-5.4c0-4.3-4.1-5.5-7.8-5.5H167
			v-2.8h1.7c3.8,0,6.7-2.3,6.7-5.3c0-2.9-2-4.5-5.1-4.5c-2.2,0-4.4,0.9-5.9,1.9L163.3,541.9z"/>
		<path fill="#FFFFFF" d="M209.4,554.2c0,9.8-6,15.1-13.3,15.1c-7.5,0-12.8-5.9-12.8-14.5c0-9.1,5.6-15,13.3-15
			C204.3,539.7,209.4,545.7,209.4,554.2z M187.2,554.6c0,6.1,3.3,11.6,9.1,11.6c5.9,0,9.2-5.4,9.2-11.9c0-5.7-3-11.6-9.1-11.6
			C190.2,542.7,187.2,548.4,187.2,554.6z"/>
		<path fill="#FFFFFF" d="M217.8,540.2v12h13.8v-12h3.7v28.6h-3.7v-13.4h-13.8v13.4h-3.7v-28.6H217.8z"/>
		<path fill="#FFFFFF" d="M247.2,543.3h-8.7v-3.1h21.2v3.1h-8.7v25.4h-3.7V543.3z"/>
		<path fill="#FFFFFF" d="M264,559.8l-3,9h-3.8l9.7-28.6h4.5l9.8,28.6h-3.9l-3.1-9H264z M273.4,556.9l-2.8-8.2
			c-0.6-1.9-1.1-3.6-1.5-5.2H269c-0.4,1.7-0.9,3.4-1.4,5.2l-2.8,8.3H273.4z"/>
		<path fill="#FFFFFF" d="M305.6,540.2v28.6h-3.7v-25.5h-9.5v8.7c0,6.2-0.3,13.1-4.3,15.8c-1.1,0.7-2.7,1.4-4.4,1.4l-0.5-3
			c1.1-0.2,2.3-0.9,3-1.5c2.3-2.2,2.5-7.8,2.5-12.4v-12H305.6z"/>
		<path fill="#FFFFFF" d="M315.7,540.2v10.7c0.8-0.1,2.5-0.2,3.5-0.2c5.9,0,11,2.6,11,8.9c0,2.7-0.8,4.6-2.2,6.1
			c-2.3,2.5-6.3,3.4-10.3,3.4c-2.6,0-4.5-0.2-5.8-0.3v-28.5H315.7z M315.7,565.9c0.8,0.2,1.8,0.2,3.1,0.2c4.1,0,7.6-2,7.6-6.4
			c0-4.5-3.6-6.2-7.7-6.2c-0.9,0-2.1,0.1-3,0.2V565.9z"/>
		<path fill="#FFFFFF" d="M338.7,540.2v12h13.8v-12h3.7v28.6h-3.7v-13.4h-13.8v13.4H335v-28.6H338.7z"/>
		<path fill="#FFFFFF" d="M387,554.2c0,9.8-6,15.1-13.3,15.1c-7.5,0-12.8-5.9-12.8-14.5c0-9.1,5.6-15,13.3-15
			C382,539.7,387,545.7,387,554.2z M364.9,554.6c0,6.1,3.3,11.6,9.1,11.6c5.9,0,9.2-5.4,9.2-11.9c0-5.7-3-11.6-9.1-11.6
			C367.9,542.7,364.9,548.4,364.9,554.6z"/>
		<path fill="#FFFFFF" d="M406.6,555.4h-11.1v10.3h12.4v3.1h-16.1v-28.6h15.4v3.1h-11.7v9h11.1V555.4z"/>
		<path fill="#FFFFFF" d="M124.4,591v28.6h-3.7v-25.5h-13.3v25.5h-3.7V591H124.4z"/>
		<path fill="#FFFFFF" d="M155.3,605c0,9.8-6,15.1-13.3,15.1c-7.5,0-12.8-5.9-12.8-14.5c0-9.1,5.6-15,13.3-15
			C150.2,590.6,155.3,596.6,155.3,605z M133.1,605.5c0,6.1,3.3,11.6,9.1,11.6c5.9,0,9.2-5.4,9.2-11.9c0-5.7-3-11.6-9.1-11.6
			C136.2,593.6,133.1,599.2,133.1,605.5z"/>
		<path fill="#FFFFFF" d="M178.7,591v28.6H175v-25.5h-9.5v8.7c0,6.2-0.3,13.1-4.3,15.8c-1.1,0.7-2.7,1.4-4.4,1.4l-0.5-3
			c1.1-0.2,2.3-0.9,3-1.5c2.3-2.2,2.5-7.8,2.5-12.4v-12H178.7z"/>
		<path fill="#FFFFFF" d="M209.5,605c0,9.8-6,15.1-13.3,15.1c-7.5,0-12.8-5.9-12.8-14.5c0-9.1,5.6-15,13.3-15
			C204.5,590.6,209.5,596.6,209.5,605z M187.3,605.5c0,6.1,3.3,11.6,9.1,11.6c5.9,0,9.2-5.4,9.2-11.9c0-5.7-3-11.6-9.1-11.6
			C190.4,593.6,187.3,599.2,187.3,605.5z"/>
		<path fill="#FFFFFF" d="M215.6,591l8.9,12.7h1.1V591h3.6v12.7h1.1l8.8-12.7h4.3l-10.1,13.1c4.5,0.5,6.3,3.3,7.7,7.3
			c1,2.7,1.7,5.5,2.8,8.1h-3.8c-1-1.9-1.7-4.7-2.4-6.7c-1.3-3.9-2.8-6.4-7.3-6.4h-1.2v13.1h-3.6v-13.1h-1.3c-4.6,0-6,2.5-7.4,6.4
			c-0.7,2-1.4,4.8-2.3,6.7h-3.8c1.2-2.6,1.9-5.4,2.8-8.1c1.4-4,3.3-6.8,7.7-7.4L211.3,591H215.6z"/>
		<path fill="#FFFFFF" d="M262.3,606.2h-11.1v10.3h12.4v3.1h-16.1V591H263v3.1h-11.7v9h11.1V606.2z"/>
		<path fill="#FFFFFF" d="M272.1,591v12h13.8v-12h3.7v28.6h-3.7v-13.4h-13.8v13.4h-3.7V591H272.1z"/>
		<path fill="#FFFFFF" d="M299.5,591v12c0,4.5-0.1,8.3-0.3,12.1l0.1,0c1.4-3,3.2-6.1,5.3-9.5l9.2-14.7h3.7v28.6H314v-12.2
			c0-4.6,0-8,0.3-11.6l-0.1,0c-1.4,3.1-3.4,6.4-5.3,9.6l-8.9,14.2h-3.9V591H299.5z"/>
		<path fill="#FFFFFF" d="M338.7,606.2h-11.1v10.3H340v3.1h-16.1V591h15.4v3.1h-11.7v9h11.1V606.2z"/>
	</g>
	<g>
		<path fill="#FFFFFF" d="M71.3,322.5v114.6c0,9.1,7.4,16.4,16.4,16.4h109.6c1.3,0,2.3-1,2.3-2.3v-4.7c0-1.3-1-2.3-2.3-2.3H87.8
			c-3.9,0-7.1-3.2-7.1-7.1V322.5c0-3.9,3.2-7.1,7.1-7.1h109.6c1.3,0,2.3-1,2.3-2.3v-4.7c0-1.3-1-2.3-2.3-2.3H87.8
			C78.7,306.1,71.3,313.5,71.3,322.5z"/>
		<path fill="#FFFFFF" d="M109,437.3h88.4c1.3,0,2.3-1,2.3-2.3l0,0c0-1.3-1-2.3-2.3-2.3h-83.7V327h83.7c1.3,0,2.3-1,2.3-2.3l0,0
			c0-1.3-1-2.3-2.3-2.3H109V437.3z"/>
		<path fill="#FFFFFF" d="M89.8,360.9v37.9c0,2.6,2.1,4.7,4.7,4.7c2.6,0,4.7-2.1,4.7-4.7v-37.9c0-2.6-2.1-4.7-4.7-4.7
			C91.9,356.2,89.8,358.3,89.8,360.9z"/>
		<path fill="#FFFFFF" d="M162.8,178.4l-3.4,4.8l19.3,13.9c-18.9,2.7-36.6,11.5-50.2,25.2c-13.6,13.6-22.4,31.3-25.2,50.2
			l-13.9-19.3l-4.8,3.4l20.7,28.7l27.1-22.7l-3.8-4.5l-19.7,16.5c2.3-18.1,10.6-35.1,23.7-48.1c13-13,30-21.3,48.1-23.7l-16.5,19.7
			l4.5,3.8l22.7-27.1L162.8,178.4z"/>
		<path fill="#FFFFFF" d="M341.2,177.6H226.7c-9.1,0-16.4,7.4-16.4,16.4v112.1v9.3v6.9v4.7v105.7v4.5c0,0,0,0.1,0,0.1
			c0,2.5,0.6,4.8,1.6,6.9c2.4,5.1,7.3,8.7,13.1,9.3c0.6,0.1,1.1,0.1,1.7,0.1h114.6c9.1,0,16.4-7.4,16.4-16.4V194
			C357.7,185,350.3,177.6,341.2,177.6z M265,192.5h37.9c2.6,0,4.7,2.1,4.7,4.7c0,2.6-2.1,4.7-4.7,4.7H265c-2.6,0-4.7-2.1-4.7-4.7
			C260.3,194.6,262.4,192.5,265,192.5z M283.9,445.4c-1.9,0-3.7-0.5-5.3-1.3c-2.5-1.3-4.4-3.4-5.5-6c-0.5-1.3-0.8-2.7-0.8-4.2
			c0-6,4.6-10.9,10.5-11.5c0.4,0,0.7-0.1,1.1-0.1c1.8,0,3.4,0.4,4.9,1.1c3.9,1.8,6.7,5.8,6.7,10.5
			C295.5,440.2,290.3,445.4,283.9,445.4z M341.4,416.8h-16.8h-9.3h-27.5h-4.7h-56.6V327v-4.7v-6.9v-9.3v-90.9h115V416.8z"/>
	</g>
</g>
</svg>
